<?xml version="1.0" encoding="UTF-8" standalone="no"?>
<svg
   width="32"
   height="32"
   viewBox="0 0 8.4666665 8.4666669"
   version="1.1"
   id="svg20249"
   inkscape:version="1.2.2 (b0a8486541, 2022-12-01)"
   sodipodi:docname="baseicon.svg"
   xmlns:inkscape="http://www.inkscape.org/namespaces/inkscape"
   xmlns:sodipodi="http://sodipodi.sourceforge.net/DTD/sodipodi-0.dtd"
   xmlns="http://www.w3.org/2000/svg"
   xmlns:svg="http://www.w3.org/2000/svg"
   xmlns:rdf="http://www.w3.org/1999/02/22-rdf-syntax-ns#"
   xmlns:cc="http://creativecommons.org/ns#"
   xmlns:dc="http://purl.org/dc/elements/1.1/">
  <defs
     id="defs20243" />
  <sodipodi:namedview
     id="base"
     pagecolor="#ffffff"
     bordercolor="#666666"
     borderopacity="1.0"
     inkscape:pageopacity="0.0"
     inkscape:pageshadow="2"
     inkscape:zoom="22.4"
     inkscape:cx="-0.98214285"
     inkscape:cy="17.633928"
     inkscape:document-units="mm"
     inkscape:current-layer="iconlayer"
     showgrid="true"
     units="px"
     inkscape:window-width="3840"
     inkscape:window-height="2101"
     inkscape:window-x="0"
     inkscape:window-y="23"
     inkscape:window-maximized="1"
     inkscape:document-rotation="0"
     inkscape:pagecheckerboard="0"
     inkscape:showpageshadow="0"
     inkscape:deskcolor="#d1d1d1">
    <inkscape:grid
       type="xygrid"
       id="grid20794"
       empspacing="4" />
    <inkscape:grid
       type="xygrid"
       id="grid20796"
       empspacing="1"
       originy="0.13229167"
       originx="0.13229167"
       dotted="true" />
  </sodipodi:namedview>
  <metadata
     id="metadata20246">
    <rdf:RDF>
      <cc:Work
         rdf:about="">
        <dc:format>image/svg+xml</dc:format>
        <dc:type
           rdf:resource="http://purl.org/dc/dcmitype/StillImage" />
      </cc:Work>
    </rdf:RDF>
  </metadata>
  <g
     inkscape:label="Base"
     inkscape:groupmode="layer"
     id="layer1"
     transform="translate(0,-288.53332)"
     sodipodi:insensitive="true">
    <path
       style="fill:#646464;fill-opacity:1;stroke:none;stroke-width:0.360358;stroke-linecap:round;stroke-linejoin:round;stroke-miterlimit:4;stroke-dasharray:none;stroke-dashoffset:0;stroke-opacity:1;paint-order:normal"
       d="m 4.5072672,291.74432 c -0.5663401,-0.15175 -1.1444399,0.18202 -1.29618,0.74836 l -1.05944,3.9538 a 4.2333333,4.2333333 0 0 0 0.98603,0.4092 4.2333333,4.2333333 0 0 0 5.1847901,-2.99343 4.2333333,4.2333333 0 0 0 0.1406401,-1.05798 z"
       id="rect824-2-2"
       inkscape:connector-curvature="0"
       inkscape:export-filename="/home/victor/newcontemporary.png"
       inkscape:export-xdpi="2165.5593"
       inkscape:export-ydpi="2165.5593" />
    <path
       id="path814-0-9"
       style="opacity:1;fill:#646464;fill-opacity:1;stroke:none;stroke-width:1;stroke-linecap:round;stroke-linejoin:round;stroke-miterlimit:4;stroke-dasharray:none;stroke-dashoffset:0;stroke-opacity:1;paint-order:normal"
       d="M 15.402344,0.00976563 A 15.999999,15.999999 0 0 0 0.54492188,11.857422 15.999999,15.999999 0 0 0 11.859375,31.453125 15.999999,15.999999 0 0 0 31.455078,20.140625 15.999999,15.999999 0 0 0 20.142578,0.54296875 15.999999,15.999999 0 0 0 15.402344,0.00976563 Z M 16,1 A 15,15 0 0 1 31,16 15,15 0 0 1 16,31 15,15 0 0 1 1,16 15,15 0 0 1 16,1 Z"
       transform="matrix(0.26458333,0,0,0.26458333,0,288.53332)" />
  </g>
  <g
     inkscape:groupmode="layer"
     id="iconlayer"
     inkscape:label="Icon">
    <path
       id="path6148"
       style="fill:#ffffff;fill-opacity:1;stroke:none;stroke-width:0.264583;stroke-linecap:round;stroke-linejoin:bevel"
       d="M 6.8745158 4.1206787 L 4.4395223 3.4669718 C 4.4261106 3.4633782 4.4126155 3.4600466 4.3992147 3.4571533 C 4.3858139 3.45426 4.3722779 3.4516057 4.3589071 3.4494019 C 4.3455362 3.447198 4.332438 3.4452428 4.3191162 3.4437174 C 4.3057944 3.4421921 4.292579 3.4409578 4.2793254 3.4401001 C 4.2660717 3.4392424 4.2527009 3.4387507 4.2395345 3.4385498 C 4.2263681 3.4383489 4.2133204 3.4386216 4.2002604 3.4390666 C 4.1872004 3.4395115 4.1739209 3.4400537 4.1609863 3.4411336 C 4.1480517 3.4422135 4.1355358 3.4435638 4.1227458 3.4452677 C 4.1099557 3.4469717 4.0971316 3.4491518 4.0845052 3.4514689 C 4.0718788 3.453786 4.0592251 3.456301 4.0467814 3.4592204 C 4.0343377 3.4621397 4.0218163 3.4655282 4.0095744 3.4690389 C 3.9973325 3.4725496 3.9854219 3.4763165 3.9734009 3.4804077 C 3.9613799 3.4844989 3.9495252 3.4891828 3.9377441 3.4938436 C 3.9259631 3.4985043 3.9141261 3.5030936 3.9026042 3.508313 C 3.8910822 3.5135324 3.8797415 3.5190823 3.8684977 3.5248494 C 3.857254 3.5306166 3.8463713 3.5366322 3.8354248 3.5429362 C 3.8244783 3.5492402 3.8134987 3.5557432 3.8028687 3.5625732 C 3.7922386 3.5694032 3.7816407 3.5764155 3.771346 3.5837606 C 3.7610514 3.5911057 3.7513138 3.5991657 3.7413737 3.607015 C 3.7314336 3.6148642 3.7214846 3.6229604 3.7119181 3.6313029 C 3.7023517 3.6396454 3.6931865 3.6477995 3.6840129 3.6566243 C 3.6748392 3.6654492 3.665903 3.6747165 3.6571411 3.6840129 C 3.6483793 3.6933092 3.6396338 3.702678 3.6313029 3.7124349 C 3.622972 3.7221918 3.6148959 3.7322006 3.607015 3.7424072 C 3.5991341 3.7526138 3.5911724 3.7632845 3.5837606 3.7739299 C 3.5763488 3.7845752 3.5694968 3.7954128 3.5625732 3.806486 C 3.5556497 3.8175593 3.5488357 3.8285855 3.5424194 3.8400757 C 3.5360031 3.8515659 3.5297058 3.8633194 3.5238159 3.8752157 C 3.517926 3.887112 3.5126239 3.8990977 3.5072795 3.9113892 C 3.5019351 3.9236806 3.4965564 3.9364372 3.4917765 3.949113 C 3.4869967 3.9617887 3.4825368 3.9748211 3.4783407 3.9878703 C 3.4741445 4.0009194 3.4705652 4.0137327 3.4669718 4.0271444 L 2.8148153 6.4621379 A 2.6458333 2.6458333 0 0 0 4.2333333 6.8791667 A 2.6458333 2.6458333 0 0 0 6.8791667 4.2333333 A 2.6458333 2.6458333 0 0 0 6.8745158 4.1206787 z " />
  </g>
</svg>
