<?xml version="1.0" encoding="UTF-8" standalone="no"?>
<!-- Created with Inkscape (http://www.inkscape.org/) -->

<svg
   width="32"
   height="32"
   viewBox="0 0 32 32"
   version="1.1"
   id="svg1"
   inkscape:version="1.3 (0e150ed, 2023-07-21)"
   sodipodi:docname="fog.svg"
   xmlns:inkscape="http://www.inkscape.org/namespaces/inkscape"
   xmlns:sodipodi="http://sodipodi.sourceforge.net/DTD/sodipodi-0.dtd"
   xmlns:xlink="http://www.w3.org/1999/xlink"
   xmlns="http://www.w3.org/2000/svg"
   xmlns:svg="http://www.w3.org/2000/svg">
  <sodipodi:namedview
     id="namedview1"
     pagecolor="#505050"
     bordercolor="#eeeeee"
     borderopacity="1"
     inkscape:showpageshadow="0"
     inkscape:pageopacity="0"
     inkscape:pagecheckerboard="0"
     inkscape:deskcolor="#d1d1d1"
     inkscape:document-units="mm"
     showgrid="true"
     inkscape:zoom="24.231161"
     inkscape:cx="9.4093715"
     inkscape:cy="23.729775"
     inkscape:window-width="1800"
     inkscape:window-height="989"
     inkscape:window-x="0"
     inkscape:window-y="44"
     inkscape:window-maximized="0"
     inkscape:current-layer="layer1">
    <inkscape:grid
       id="grid1"
       units="px"
       originx="0"
       originy="0"
       spacingx="1"
       spacingy="1"
       empcolor="#0099e5"
       empopacity="0.30196078"
       color="#0099e5"
       opacity="0.14901961"
       empspacing="4"
       dotted="false"
       gridanglex="30"
       gridanglez="30"
       visible="true" />
    <inkscape:grid
       id="grid2"
       units="px"
       originx="0.5"
       originy="0.5"
       spacingx="1"
       spacingy="1"
       empcolor="#0099e5"
       empopacity="0.30196078"
       color="#0099e5"
       opacity="0.14901961"
       empspacing="1"
       dotted="true"
       gridanglex="30"
       gridanglez="30"
       visible="true" />
  </sodipodi:namedview>
  <defs
     id="defs1">
    <linearGradient
       id="linearGradient13"
       inkscape:collect="always">
      <stop
         style="stop-color:#007dff;stop-opacity:1;"
         offset="0"
         id="stop13" />
      <stop
         style="stop-color:#0096ff;stop-opacity:0;"
         offset="1"
         id="stop14" />
    </linearGradient>
    <linearGradient
       inkscape:collect="always"
       xlink:href="#linearGradient8"
       id="linearGradient9"
       x1="15"
       y1="23"
       x2="15"
       y2="16.5"
       gradientUnits="userSpaceOnUse" />
    <linearGradient
       id="linearGradient8"
       inkscape:collect="always">
      <stop
         style="stop-color:#969696;stop-opacity:1;"
         offset="0"
         id="stop8" />
      <stop
         style="stop-color:#f0f0f0;stop-opacity:0;"
         offset="1"
         id="stop9" />
    </linearGradient>
    <linearGradient
       inkscape:collect="always"
       xlink:href="#linearGradient13"
       id="linearGradient14"
       x1="7"
       y1="24"
       x2="9"
       y2="18"
       gradientUnits="userSpaceOnUse" />
  </defs>
  <g
     inkscape:label="Layer 1"
     inkscape:groupmode="layer"
     id="layer1">
    <g
       id="g9"
       transform="matrix(1.1665718,0,0,1.1665718,-2.5442681,-8.8311514)">
      <path
         id="path4"
         style="fill:#f0f0f0;fill-opacity:1;stroke-linecap:round;stroke-linejoin:round"
         d="m 13.967773,9 a 6,6 0 0 0 -5.9999995,6 6,6 0 0 0 0.00195,0.01758 3.9841936,3.9841936 0 0 0 -3.9707,3.98242 3.9841936,3.9841936 0 0 0 3.96875,3.982422 V 23 H 22.967773 a 5.0324302,5.0324302 0 0 0 5.033203,-5.033203 5.0324302,5.0324302 0 0 0 -5.033203,-5.03125 5.0324302,5.0324302 0 0 0 -3.083984,1.070312 A 6,6 0 0 0 13.967773,9 Z" />
      <path
         id="path8"
         style="fill:url(#linearGradient9);fill-opacity:1;stroke-linecap:round;stroke-linejoin:round"
         d="M 27.773438,16.554688 A 5.0324302,5.0324302 0 0 1 23,20 H 8 V 19.98242 A 3.9841936,3.9841936 0 0 1 4.3300781,17.455078 3.9841936,3.9841936 0 0 0 4,19 3.9841936,3.9841936 0 0 0 7.96875,22.982422 V 23 H 22.966797 A 5.0324302,5.0324302 0 0 0 28,17.966797 5.0324302,5.0324302 0 0 0 27.773438,16.554688 Z" />
    </g>
    <path
       style="color:#000000;fill:url(#linearGradient14);stroke-linecap:round;stroke-linejoin:bevel;-inkscape-stroke:none;fill-opacity:1"
       d="m 8.3164063,20.050781 a 1,1 0 0 0 -1.2656251,0.632813 l -1,3 a 1,1 0 0 0 0.6328125,1.265625 1,1 0 0 0 1.265625,-0.632813 l 1.0000001,-3 A 1,1 0 0 0 8.3164063,20.050781 Z"
       id="path11" />
  </g>
</svg>
